<svg version="1.1" id="Layer_1" xmlns="http://www.w3.org/2000/svg" xmlns:xlink="http://www.w3.org/1999/xlink" x="0px" y="0px"
	 width="100%" viewBox="0 0 316 126" enable-background="new 0 0 316 126" xml:space="preserve">
<path fill="#FFFFFF" opacity="1.000000" stroke="none" 
	d="
M1.000000,61.000000 
	C1.000000,41.010052 1.000000,21.020103 1.000000,1.015078 
	C106.270340,1.015078 211.540695,1.015078 316.905518,1.015078 
	C316.905518,42.915710 316.905518,84.831711 316.905518,126.873856 
	C211.666763,126.873856 106.333405,126.873856 1.000000,126.873856 
	C1.000000,109.586685 1.000000,92.262001 1.362473,74.597031 
	C2.150916,75.422874 2.547557,76.600723 3.008038,77.753075 
	C4.808100,82.257683 4.035884,87.903236 9.030402,91.351723 
	C10.092856,92.136055 11.021129,92.620712 11.982759,93.462158 
	C18.219305,97.756920 24.422489,101.694901 30.893555,105.676346 
	C31.238476,105.556114 31.315517,105.392418 31.593601,105.544579 
	C35.529938,107.518082 39.265240,109.175713 43.365593,110.902786 
	C44.471706,111.018227 45.212757,111.064232 46.153641,111.434067 
	C50.902489,113.116379 55.451515,114.474861 60.258759,115.889099 
	C60.689125,115.907669 60.861271,115.870506 61.352409,116.000015 
	C62.780281,116.388908 63.889164,116.611130 65.406647,116.902618 
	C67.194763,117.017998 68.574272,117.064110 70.120880,117.412704 
	C71.191414,117.754578 72.094864,117.793961 73.330391,117.896774 
	C75.093140,118.010460 76.523811,118.060730 78.074150,118.378998 
	C78.811699,118.467606 79.429581,118.288216 80.255325,118.073471 
	C80.463196,118.038132 80.884872,118.041840 80.949371,118.425003 
	C82.341919,119.149895 83.669960,119.491623 85.459381,119.902954 
	C90.598434,120.018448 95.276108,120.064339 100.120880,120.412704 
	C101.191414,120.754578 102.094864,120.793961 103.419212,120.902603 
	C105.544678,121.017982 107.249229,121.064102 109.120880,121.412704 
	C110.191414,121.754585 111.094864,121.793968 112.394379,121.902603 
	C114.515274,121.956192 116.240204,121.919601 117.964905,121.928261 
	C128.961319,121.983452 139.957687,122.048622 151.087448,122.389290 
	C151.813400,122.723160 152.405975,122.778252 153.462524,122.903046 
	C164.344452,122.981827 174.762680,123.030922 185.180038,122.957031 
	C186.751678,122.945877 188.319260,122.361237 189.985687,122.288414 
	C190.425568,122.370560 190.768478,122.206154 191.550461,122.024368 
	C195.977570,121.708000 199.965622,121.409027 204.124603,121.414909 
	C205.546539,121.515701 206.797562,121.311638 208.433075,121.062912 
	C210.529877,120.715836 212.242188,120.413414 214.074158,120.378998 
	C214.811691,120.467613 215.429565,120.288216 216.352295,120.064209 
	C217.067688,120.027023 217.478195,120.034447 217.985687,120.288422 
	C218.425583,120.370560 218.768478,120.206161 219.525665,120.024124 
	C222.944809,119.707985 225.949646,119.409485 229.074158,119.378998 
	C229.811691,119.467606 230.429565,119.288216 231.457733,119.063492 
	C234.541595,118.692726 237.215149,118.367310 239.985687,118.288422 
	C240.425583,118.370567 240.768478,118.206161 241.540771,118.024261 
	C248.163467,117.005478 254.351379,115.969452 260.551208,115.010445 
	C272.060364,113.230186 283.595856,111.565613 294.270447,105.856995 
	C294.625610,105.594238 294.729492,105.307861 295.011017,104.702011 
	C297.132172,103.532806 299.075653,102.683083 301.270447,101.856995 
	C301.625610,101.594246 301.729523,101.307869 301.968567,100.722687 
	C303.075531,99.560379 304.047333,98.696869 305.270447,97.856995 
	C305.625610,97.594238 305.729492,97.307861 305.975220,96.711678 
	C307.084442,95.212372 308.051819,94.022873 309.270447,92.857002 
	C309.625641,92.594254 309.729523,92.307877 309.910706,91.652832 
	C311.331726,87.800560 312.675446,84.316963 314.270447,80.856995 
	C314.625610,80.594246 314.729523,80.307869 314.902710,79.613220 
	C315.259155,76.802788 315.546295,74.400642 315.901917,71.645218 
	C315.591431,70.208000 315.212433,69.124039 314.889160,67.779671 
	C314.907715,67.345650 314.870544,67.172035 314.901398,66.599976 
	C312.660400,60.762867 310.351379,55.324207 307.943115,49.620689 
	C307.267395,48.889725 306.690887,48.423622 305.964233,47.640228 
	C303.358185,44.941181 301.297363,41.749527 298.375031,40.324039 
	C288.126312,35.324837 277.900208,30.065178 266.118164,28.046478 
	C265.305878,27.582176 264.758820,27.463930 264.006775,27.187672 
	C261.568695,26.335419 259.335693,25.641180 256.884521,24.606651 
	C254.777771,24.233128 252.889191,24.199890 250.593170,24.097448 
	C244.804642,22.980696 239.423523,21.933146 233.851959,20.568775 
	C232.441193,20.223518 231.220901,20.195086 229.620789,20.097672 
	C225.827484,19.741344 222.413986,19.453999 218.604034,19.097443 
	C217.138580,19.074371 216.069595,19.120512 214.611954,19.097630 
	C210.148666,18.407953 206.074036,17.787302 201.537170,17.097015 
	C196.049576,17.073809 191.024185,17.120235 185.656769,16.993706 
	C183.316635,16.881786 181.214478,16.563046 179.340363,17.076593 
	C174.159576,18.496243 169.073990,20.263380 163.604691,22.120548 
	C163.798904,24.940706 160.834671,28.298737 165.141266,30.429749 
	C168.568878,31.202093 171.808853,31.654699 175.435272,32.049782 
	C180.532654,31.698498 185.243561,31.404736 190.074142,31.378983 
	C190.811676,31.467609 191.429550,31.288231 192.509155,31.063324 
	C197.965195,31.048592 202.959473,31.079388 208.120850,31.412685 
	C209.191376,31.754574 210.094849,31.793961 211.363510,31.902771 
	C212.470093,32.017860 213.211487,32.063522 214.072876,32.396347 
	C215.141052,32.829033 216.089233,32.974560 217.391327,33.070263 
	C218.459732,33.027584 219.174225,33.034733 219.985703,33.288422 
	C220.425583,33.370564 220.768478,33.206169 221.467117,33.024612 
	C222.533157,33.041687 223.243469,33.075932 224.120850,33.412682 
	C225.191376,33.754574 226.094849,33.793961 227.257080,33.889091 
	C227.688385,33.907681 227.860901,33.870522 228.352417,34.000023 
	C229.780289,34.388908 230.889160,34.611130 232.256897,34.889091 
	C232.688293,34.907681 232.860855,34.870522 233.352417,35.000023 
	C234.780289,35.388912 235.889160,35.611130 237.256897,35.889091 
	C237.688293,35.907681 237.860855,35.870522 238.352417,36.000023 
	C239.780289,36.388912 240.889160,36.611134 242.256897,36.889091 
	C242.688293,36.907681 242.860855,36.870522 243.352417,37.000023 
	C244.780289,37.388908 245.889160,37.611130 247.363403,37.902779 
	C248.470444,38.018200 249.212097,38.064190 250.120850,38.412682 
	C251.191376,38.754578 252.094849,38.793964 253.389572,38.902611 
	C254.838516,39.018013 255.896210,39.064152 257.155884,39.434776 
	C270.294098,44.284527 284.831329,45.129261 295.027222,56.340958 
	C295.280853,56.856289 295.543549,57.014408 295.945068,57.409115 
	C300.681183,61.789936 301.408478,67.401512 302.110870,73.256622 
	C302.092285,73.683304 302.129456,73.853973 302.097534,74.410217 
	C299.314148,79.516396 296.599823,84.237000 293.595795,89.079575 
	C292.187347,90.432388 291.068604,91.663246 289.578705,92.948029 
	C286.654114,94.005867 284.165924,95.244576 281.536469,95.974609 
	C267.220551,99.949257 252.752365,103.239548 237.628647,105.097748 
	C236.504684,105.074776 235.752640,105.120712 234.591354,105.098671 
	C229.464401,105.409340 224.746674,105.787987 219.771851,106.110901 
	C219.343369,106.092316 219.171982,106.129478 218.584167,106.098618 
	C216.119644,106.354050 214.081833,106.790199 212.021393,106.978615 
	C207.020050,107.435959 202.008179,107.778091 196.628647,108.097748 
	C195.504684,108.074776 194.752625,108.120712 193.614838,108.098450 
	C191.486252,108.409058 189.743408,108.787857 187.576050,109.097366 
	C185.434555,109.074272 183.717575,109.120461 181.606750,109.097511 
	C178.475449,109.074463 175.737991,109.120560 172.539001,109.097031 
	C167.385162,109.073830 162.692871,109.120239 157.619995,109.097633 
	C151.493134,109.074631 145.746841,109.120636 139.547440,109.097198 
	C132.063080,108.740715 125.031845,108.453674 117.611099,108.097420 
	C110.480713,107.407677 103.739845,106.787155 96.553360,106.097260 
	C93.405373,106.074142 90.702995,106.120399 87.599365,106.097458 
	C84.141838,105.407730 81.085556,104.787178 77.772110,104.110901 
	C77.343506,104.092316 77.172058,104.129478 76.613007,104.097557 
	C74.483795,103.741188 72.742188,103.453918 70.604111,103.097427 
	C69.138641,103.074364 68.069633,103.120506 66.591545,103.097267 
	C60.172745,101.362228 54.111744,99.858543 48.170212,97.977501 
	C43.753490,96.579193 39.284424,95.082123 35.214035,92.921791 
	C30.288633,90.307678 25.758951,86.947968 21.034302,83.950195 
	C21.010586,83.989479 21.089117,83.942001 20.945305,83.626709 
	C19.236868,80.858093 17.672243,78.404770 16.062819,75.556931 
	C15.956463,74.107841 15.894906,73.053268 15.901931,71.659088 
	C15.682965,70.530212 15.395416,69.740944 15.077259,68.556641 
	C15.366825,66.748055 15.398222,65.177818 16.063597,63.951572 
	C17.772457,60.802254 19.084770,56.879894 21.764580,54.917534 
	C30.598392,48.448750 38.932793,41.173801 50.083221,38.270073 
	C59.253139,35.882095 67.912872,31.531658 77.084938,29.156063 
	C89.565460,25.923571 102.318375,23.742773 115.074142,21.378996 
	C115.811699,21.467613 116.429581,21.288218 117.484985,21.063507 
	C124.932983,20.048922 131.943466,19.079649 139.102783,18.400330 
	C140.183777,18.496206 141.115967,18.302128 142.488434,18.063004 
	C152.603973,17.048964 162.279221,16.079969 172.074158,15.378983 
	C172.811691,15.467609 173.429550,15.288229 174.498352,15.063520 
	C178.950790,14.715521 182.952271,14.412851 187.120850,14.412683 
	C188.191376,14.754574 189.094849,14.793962 190.462311,14.903049 
	C197.967377,14.684028 205.008423,14.395306 212.361603,13.934311 
	C214.106262,10.049007 211.964493,7.587587 206.921356,6.992299 
	C202.274017,6.443730 197.640305,5.779777 192.587708,5.097375 
	C190.783417,5.074284 189.392014,5.120467 187.587585,5.097232 
	C183.449875,5.074092 179.725220,5.120371 175.628647,5.097744 
	C174.504684,5.074775 173.752640,5.120712 172.601013,5.098680 
	C166.477280,5.409350 160.753113,5.787991 154.771866,6.110895 
	C154.343369,6.092324 154.171982,6.129487 153.595947,6.098621 
	C149.794388,6.742611 146.397461,7.454630 142.598434,8.098025 
	C139.464401,8.075151 136.732498,8.120901 133.586273,8.098636 
	C129.114807,8.742631 125.057655,9.454640 120.628616,10.097744 
	C119.504692,10.074776 118.752647,10.120713 117.603905,10.098616 
	C111.471634,11.075937 105.736076,12.121294 99.587646,13.097376 
	C97.783394,13.074285 96.391998,13.120466 94.593536,13.098717 
	C92.136978,13.355176 90.062241,13.568062 88.042915,14.025545 
	C82.681686,15.240150 77.344376,16.560341 71.724365,17.527519 
	C70.620659,17.772064 69.790146,18.327625 68.620850,18.815300 
	C67.693390,18.545666 66.989563,18.024431 66.532875,18.188999 
	C55.805069,22.054831 44.985798,25.708471 34.453571,30.055805 
	C29.971075,31.906025 26.099432,35.236156 21.577532,37.948383 
	C15.480798,39.967701 11.924906,44.273762 8.682829,49.370842 
	C6.960119,52.122734 5.688616,54.855885 4.146744,57.426884 
	C3.343941,58.765522 2.064270,59.818172 1.000000,61.000000 
z"/>
<path fill="#24DD80" opacity="1.000000" stroke="none" 
	d="
M8.896220,91.052048 
	C4.035884,87.903236 4.808100,82.257683 3.008038,77.753075 
	C2.547557,76.600723 2.150916,75.422874 1.362473,74.128372 
	C1.000000,72.285645 1.000000,70.571281 1.275038,68.381805 
	C1.755601,67.604980 1.961125,67.303276 2.525511,67.052933 
	C3.917998,68.455841 5.442404,69.663078 5.890477,71.186813 
	C7.091130,75.269798 7.995197,79.461166 8.689919,83.663567 
	C9.088060,86.071938 8.848619,88.585724 8.896220,91.052048 
z"/>
<path fill="#24DD80" opacity="1.000000" stroke="none" 
	d="
M1.000000,61.333332 
	C2.064270,59.818172 3.343941,58.765522 4.146744,57.426884 
	C5.688616,54.855885 6.960119,52.122734 9.155689,49.605423 
	C10.645071,49.835999 11.322536,49.917999 11.998674,50.389618 
	C10.928218,53.619747 9.571452,56.390293 8.859307,59.317654 
	C7.862653,63.414516 5.791249,64.757378 1.662989,63.038940 
	C1.441503,63.036404 1.000000,63.000000 1.000000,63.000000 
	C1.000000,62.555553 1.000000,62.111111 1.000000,61.333332 
z"/>
<path fill="#FFFFFF" opacity="1.000000" stroke="none" 
	d="
M1.000000,63.416656 
	C1.000000,63.000000 1.441503,63.036404 1.711124,63.433868 
	C2.042713,64.888077 2.104681,65.944832 2.166649,67.001579 
	C1.961125,67.303276 1.755601,67.604980 1.275038,67.953339 
	C1.000000,66.611107 1.000000,65.222206 1.000000,63.416656 
z"/>
<path fill="#24DD80" opacity="1.000000" stroke="none" 
	d="
M2.525512,67.052933 
	C2.104681,65.944832 2.042713,64.888077 1.932610,63.436405 
	C5.791249,64.757378 7.862653,63.414516 8.859307,59.317654 
	C9.571452,56.390293 10.928218,53.619747 12.225847,50.121063 
	C17.456024,46.958244 22.430544,44.421032 25.411510,38.999939 
	C28.572670,37.668816 31.243061,36.130383 34.086124,35.043716 
	C44.626644,31.014959 55.158062,26.939337 65.846046,23.335508 
	C68.553062,22.422747 69.274490,21.323326 68.959625,18.883186 
	C69.790146,18.327625 70.620659,17.772064 71.767502,17.925560 
	C73.839546,22.583174 77.094917,21.020632 79.810944,20.501108 
	C84.664810,19.572651 89.445526,18.261787 94.730240,16.997543 
	C94.796608,16.057171 94.898605,14.611911 95.000610,13.166649 
	C96.391998,13.120466 97.783394,13.074285 99.636818,13.449311 
	C101.747070,14.855705 103.472572,16.774248 105.028557,16.645420 
	C109.162704,16.303143 113.223724,15.077628 117.738197,14.112702 
	C117.811050,13.017165 117.905830,11.591908 118.000610,10.166651 
	C118.752647,10.120713 119.504692,10.074776 120.677444,10.447751 
	C124.421005,15.142928 125.555870,15.132190 127.480652,11.144297 
	C129.342072,11.685664 131.138580,12.208152 132.935089,12.730639 
	C133.290253,11.209309 133.645416,9.687979 134.000580,8.166650 
	C136.732498,8.120901 139.464401,8.075151 142.648041,8.451405 
	C145.698822,14.660582 149.858566,10.361529 153.667465,10.813440 
	C153.794159,9.046204 153.897369,7.606427 154.000580,6.166650 
	C154.171982,6.129487 154.343369,6.092324 154.947968,6.412367 
	C160.218796,12.833246 166.634781,8.866150 172.663498,10.080559 
	C172.803726,8.036245 172.902161,6.601448 173.000580,5.166650 
	C173.752640,5.120712 174.504684,5.074775 175.677246,5.447987 
	C177.545914,10.310532 181.253876,7.929771 183.999954,8.625906 
	C187.456558,9.502155 188.227158,8.122622 188.000610,5.166650 
	C189.392014,5.120467 190.783417,5.074284 192.634094,5.452290 
	C195.573547,10.856658 196.445450,11.106158 200.251907,7.794396 
	C202.007004,11.418921 204.236771,12.288097 205.832886,10.176016 
	C207.861740,11.458779 209.955612,12.782663 212.049484,14.106565 
	C205.008423,14.395306 197.967377,14.684028 190.404572,14.585422 
	C188.906479,14.168790 187.930115,14.139486 186.953766,14.110182 
	C182.952271,14.412851 178.950790,14.715521 174.348511,14.819025 
	C173.149994,14.783566 172.552231,14.947272 171.954483,15.110977 
	C162.279221,16.079969 152.603973,17.048964 142.303635,17.793900 
	C140.770355,17.750021 139.862152,17.930199 138.953949,18.110376 
	C131.943466,19.079649 124.932983,20.048922 117.335129,20.819031 
	C116.149994,20.783575 115.552231,20.947283 114.954475,21.110987 
	C102.318375,23.742773 89.565460,25.923571 77.084938,29.156063 
	C67.912872,31.531658 59.253139,35.882095 50.083221,38.270073 
	C38.932793,41.173801 30.598392,48.448750 21.764580,54.917534 
	C19.084770,56.879894 17.772457,60.802254 16.063597,63.951572 
	C15.398222,65.177818 15.366825,66.748055 14.811512,68.739471 
	C14.995365,70.211121 15.414357,71.104912 15.833349,71.998695 
	C15.894906,73.053268 15.956463,74.107841 15.777645,75.772324 
	C15.873225,80.014503 15.530356,84.145309 21.089117,83.942001 
	C21.089117,83.942001 21.010586,83.989479 21.017313,84.342331 
	C21.935822,86.275330 22.472908,88.372116 23.821404,89.350128 
	C31.440952,94.876282 39.413788,99.861084 48.663784,102.239532 
	C50.346378,102.672173 52.235611,102.301201 54.029453,102.301201 
	C56.759651,104.058723 59.891796,105.284912 63.024994,106.508392 
	C66.389229,107.822067 67.211754,106.108368 67.000618,103.166649 
	C68.069633,103.120506 69.138641,103.074364 70.650909,103.453796 
	C72.442818,105.224709 73.791473,106.570045 75.140129,107.915390 
	C75.760292,106.665810 76.380455,105.416229 77.000610,104.166649 
	C77.172058,104.129478 77.343506,104.092316 77.939209,104.401733 
	C79.117035,105.812973 79.645554,107.292198 80.674011,107.850487 
	C82.461266,108.820694 84.533005,109.388084 86.550064,109.683937 
	C86.855049,109.728668 87.508408,107.398361 88.000618,106.166649 
	C90.702995,106.120399 93.405373,106.074142 96.561569,106.476799 
	C98.081047,108.246735 98.993431,110.519928 100.239479,110.720535 
	C105.092293,111.501793 110.052628,111.604774 114.969559,112.002167 
	C117.952957,112.243286 118.102486,110.322937 118.000610,108.166641 
	C125.031845,108.453674 132.063080,108.740715 139.600952,109.461891 
	C141.780762,110.930252 143.355484,112.572418 145.149094,112.862892 
	C148.195297,113.356209 151.388718,112.847618 154.502914,113.040382 
	C157.501312,113.225967 158.262283,111.745216 158.000595,109.166649 
	C162.692871,109.120239 167.385162,109.073830 172.591156,109.457611 
	C174.350510,113.316261 177.267517,113.409843 179.997345,112.786964 
	C180.893768,112.582420 181.345505,110.428909 182.000595,109.166656 
	C183.717575,109.120461 185.434555,109.074272 187.625443,109.449402 
	C189.585266,110.870705 191.071182,111.870682 192.557098,112.870667 
	C193.038254,111.302658 193.519409,109.734657 194.000565,108.166649 
	C194.752625,108.120712 195.504684,108.074776 196.682098,108.462273 
	C200.699203,113.438454 210.349487,113.403809 212.493744,109.169601 
	C214.358490,109.702721 216.150955,110.215172 217.943420,110.727623 
	C218.295807,109.207298 218.648193,107.686974 219.000580,106.166649 
	C219.171982,106.129478 219.343369,106.092316 219.947861,106.412239 
	C224.199753,112.036240 229.514435,109.461029 234.678162,109.895805 
	C234.805176,108.032669 234.902878,106.599663 235.000580,105.166649 
	C235.752640,105.120712 236.504684,105.074776 237.676727,105.445480 
	C239.778748,106.810318 241.370285,108.072113 243.175598,108.593231 
	C244.323105,108.924469 245.787735,108.153244 247.110947,107.880257 
	C254.296829,106.397781 261.505280,105.013535 268.653870,103.368866 
	C270.517151,102.940186 272.193970,101.701134 274.651642,100.492340 
	C278.432892,102.876480 288.295654,100.590355 293.014893,95.115471 
	C291.980255,94.365623 290.965088,93.629860 289.949890,92.894104 
	C291.068604,91.663246 292.187347,90.432388 294.033936,89.091957 
	C301.912903,90.582169 302.977661,84.264832 305.268433,80.237778 
	C305.905762,79.117439 303.289948,76.146553 302.166595,74.024651 
	C302.129456,73.853973 302.092285,73.683304 302.502167,73.254242 
	C303.938965,72.385292 305.642853,71.921448 305.803284,71.140518 
	C306.889740,65.851967 300.759644,57.350655 295.884888,57.041832 
	C295.543549,57.014408 295.280853,56.856289 295.038635,55.948334 
	C295.010590,50.273766 290.985657,48.730194 287.421082,47.391109 
	C279.801208,44.528591 272.029419,42.045292 264.233856,39.691433 
	C261.956329,39.003746 259.388611,39.277317 256.953888,39.110291 
	C255.896210,39.064152 254.838516,39.018013 253.331818,38.584980 
	C251.906464,38.168781 250.930115,38.139481 249.953766,38.110180 
	C249.212097,38.064190 248.470444,38.018200 247.299911,37.580109 
	C245.591843,37.069794 244.312637,36.951576 243.033432,36.833359 
	C242.860855,36.870522 242.688293,36.907681 242.193390,36.566422 
	C240.591843,36.069794 239.312637,35.951576 238.033432,35.833359 
	C237.860855,35.870522 237.688293,35.907681 237.193390,35.566422 
	C235.591843,35.069794 234.312637,34.951576 233.033432,34.833359 
	C232.860855,34.870522 232.688293,34.907681 232.193390,34.566422 
	C230.591843,34.069794 229.312637,33.951576 228.033432,33.833359 
	C227.860901,33.870522 227.688385,33.907681 227.199341,33.571461 
	C225.906464,33.168781 224.930115,33.139481 223.953766,33.110180 
	C223.243469,33.075932 222.533157,33.041687 221.161316,33.013565 
	C220.296082,33.027088 220.092407,33.034489 219.888718,33.041885 
	C219.174225,33.034733 218.459732,33.027584 217.340851,32.731010 
	C215.941925,32.330788 214.947403,32.219990 213.952866,32.109188 
	C213.211487,32.063522 212.470093,32.017860 211.305756,31.585146 
	C209.906464,31.168793 208.930115,31.139488 207.953766,31.110184 
	C202.959473,31.079388 197.965195,31.048592 192.359329,30.818830 
	C191.149994,30.783567 190.552246,30.947269 189.954483,31.110973 
	C185.243561,31.404736 180.532654,31.698498 175.197021,31.755655 
	C171.366074,31.049370 168.159851,30.579689 164.953613,30.110008 
	C160.834671,28.298737 163.798904,24.940706 163.834137,22.416683 
	C166.909927,22.714567 169.460587,23.365141 171.898529,23.073471 
	C175.496231,22.643047 179.021927,20.875643 182.562988,20.919222 
	C185.920212,20.960541 186.103043,19.557655 185.998810,17.166660 
	C191.024185,17.120235 196.049576,17.073809 201.545029,17.474331 
	C202.821213,23.795843 207.952805,21.191669 211.072342,22.501575 
	C214.379837,23.890402 215.205795,22.066406 215.000595,19.166653 
	C216.069595,19.120512 217.138580,19.074371 218.651520,19.447571 
	C220.009201,20.986559 220.731354,22.382315 221.872559,23.174170 
	C225.314697,25.562614 229.428070,23.953491 230.000595,20.166651 
	C231.220901,20.195086 232.441193,20.223518 233.840454,20.983900 
	C233.792374,24.536364 234.888580,25.899418 237.918701,26.073900 
	C240.993408,26.250948 244.106247,26.768860 247.070084,27.605892 
	C250.510712,28.577583 251.200363,27.034830 251.000610,24.166651 
	C252.889191,24.199890 254.777771,24.233128 256.598389,24.832130 
	C254.813019,29.785067 258.748291,29.892305 260.965057,30.695759 
	C263.600677,31.651026 264.298523,29.622906 264.211792,27.345684 
	C264.758820,27.463930 265.305878,27.582176 265.980103,28.480133 
	C267.082428,30.497147 267.841370,32.508869 269.066467,32.850853 
	C280.196075,35.957699 291.212555,39.148617 300.489990,46.573318 
	C301.857910,47.668076 304.214935,47.526878 306.114349,47.957523 
	C306.690887,48.423622 307.267395,48.889725 307.936157,50.015038 
	C310.296753,56.115643 312.565094,61.557034 314.833405,66.998428 
	C314.870544,67.172035 314.907715,67.345650 314.656860,68.013657 
	C314.857025,69.671532 315.345215,70.835014 315.833405,71.998489 
	C315.546295,74.400642 315.259155,76.802788 314.727539,79.704720 
	C314.264740,80.367172 314.110107,80.576790 314.019165,80.833366 
	C312.675446,84.316963 311.331726,87.800560 309.735504,91.744331 
	C309.264740,92.367172 309.110107,92.576790 309.019165,92.833374 
	C308.051819,94.022873 307.084442,95.212372 305.800049,96.803185 
	C305.264740,97.367172 305.110107,97.576790 305.019165,97.833366 
	C304.047333,98.696869 303.075531,99.560379 301.793335,100.814194 
	C301.264740,101.367172 301.110107,101.576790 301.019165,101.833359 
	C299.075653,102.683083 297.132172,103.532806 294.835815,104.793518 
	C294.264740,105.367172 294.110107,105.576790 294.019165,105.833366 
	C283.595856,111.565613 272.060364,113.230186 260.551208,115.010445 
	C254.351379,115.969452 248.163467,117.005478 241.234985,118.013222 
	C240.296082,118.027084 240.092392,118.034485 239.888718,118.041885 
	C237.215149,118.367310 234.541595,118.692726 231.307892,118.819000 
	C230.149994,118.783569 229.552246,118.947281 228.954498,119.110992 
	C225.949646,119.409485 222.944809,119.707985 219.219879,120.013092 
	C218.296082,120.027084 218.092392,120.034485 217.888718,120.041878 
	C217.478195,120.034447 217.067688,120.027023 216.202454,119.819717 
	C215.149994,119.783562 214.552246,119.947273 213.954498,120.110992 
	C212.242188,120.413414 210.529877,120.715836 208.223969,120.782257 
	C206.404816,120.734192 205.179230,120.922127 203.953659,121.110062 
	C199.965622,121.409027 195.977570,121.708000 191.244659,122.013336 
	C190.296082,122.027084 190.092392,122.034485 189.888718,122.041870 
	C188.319260,122.361237 186.751678,122.945877 185.180038,122.957031 
	C174.762680,123.030922 164.344452,122.981827 153.420624,122.616745 
	C152.261185,122.210670 151.607620,122.160591 150.954071,122.110512 
	C139.957687,122.048622 128.961319,121.983452 117.964905,121.928261 
	C116.240204,121.919601 114.515274,121.956192 112.336639,121.584976 
	C110.906479,121.168800 109.930130,121.139511 108.953789,121.110214 
	C107.249229,121.064102 105.544678,121.017982 103.361465,120.584976 
	C101.906479,120.168800 100.930130,120.139511 99.953789,120.110222 
	C95.276108,120.064339 90.598434,120.018448 85.377762,119.552383 
	C83.518143,118.768745 82.201508,118.405296 80.884872,118.041840 
	C80.884872,118.041840 80.463196,118.038132 80.105461,117.829010 
	C79.149979,117.783585 78.552231,117.947296 77.954475,118.110992 
	C76.523811,118.060730 75.093140,118.010460 73.272644,117.579147 
	C71.906479,117.168800 70.930130,117.139511 69.953789,117.110222 
	C68.574272,117.064110 67.194763,117.017998 65.343140,116.579941 
	C63.591831,116.069794 62.312622,115.951569 61.033413,115.833351 
	C60.861271,115.870506 60.689125,115.907669 60.244629,115.511047 
	C57.746395,112.348434 49.451622,110.001137 45.953812,111.110237 
	C45.212757,111.064232 44.471706,111.018227 43.351753,110.526428 
	C39.112755,108.463333 35.252659,106.846024 31.392563,105.228714 
	C31.315517,105.392418 31.238476,105.556114 31.024361,105.260529 
	C30.572847,103.949425 30.514521,102.718224 29.903494,102.305710 
	C24.966543,98.972771 19.963371,95.731537 14.869419,92.645523 
	C14.225333,92.255318 12.938463,92.926132 11.949399,93.105377 
	C11.021129,92.620712 10.092856,92.136055 9.030402,91.351723 
	C8.848619,88.585724 9.088060,86.071938 8.689919,83.663567 
	C7.995197,79.461166 7.091130,75.269798 5.890477,71.186813 
	C5.442404,69.663078 3.917998,68.455841 2.525512,67.052933 
z"/>
<path fill="#24DD80" opacity="1.000000" stroke="none" 
	d="
M289.578705,92.948029 
	C290.965088,93.629860 291.980255,94.365623 293.014893,95.115471 
	C288.295654,100.590355 278.432892,102.876480 274.651642,100.492340 
	C272.193970,101.701134 270.517151,102.940186 268.653870,103.368866 
	C261.505280,105.013535 254.296829,106.397781 247.110947,107.880257 
	C245.787735,108.153244 244.323105,108.924469 243.175598,108.593231 
	C241.370285,108.072113 239.778748,106.810318 238.048630,105.514389 
	C252.752365,103.239548 267.220551,99.949257 281.536469,95.974609 
	C284.165924,95.244576 286.654114,94.005867 289.578705,92.948029 
z"/>
<path fill="#24DD80" opacity="1.000000" stroke="none" 
	d="
M68.620850,18.815300 
	C69.274490,21.323326 68.553062,22.422747 65.846046,23.335508 
	C55.158062,26.939337 44.626644,31.014959 34.086124,35.043716 
	C31.243061,36.130383 28.572670,37.668816 25.062855,38.997101 
	C23.518520,38.627464 22.734354,38.260605 21.950188,37.893745 
	C26.099432,35.236156 29.971075,31.906025 34.453571,30.055805 
	C44.985798,25.708471 55.805069,22.054831 66.532875,18.188999 
	C66.989563,18.024431 67.693390,18.545666 68.620850,18.815300 
z"/>
<path fill="#24DD80" opacity="1.000000" stroke="none" 
	d="
M66.591545,103.097267 
	C67.211754,106.108368 66.389229,107.822067 63.024994,106.508392 
	C59.891796,105.284912 56.759651,104.058723 54.029453,102.301201 
	C52.235611,102.301201 50.346378,102.672173 48.663784,102.239532 
	C39.413788,99.861084 31.440952,94.876282 23.821404,89.350128 
	C22.472908,88.372116 21.935822,86.275330 21.041031,84.303047 
	C25.758951,86.947968 30.288633,90.307678 35.214035,92.921791 
	C39.284424,95.082123 43.753490,96.579193 48.170212,97.977501 
	C54.111744,99.858543 60.172745,101.362228 66.591545,103.097267 
z"/>
<path fill="#24DD80" opacity="1.000000" stroke="none" 
	d="
M305.964233,47.640232 
	C304.214935,47.526878 301.857910,47.668076 300.489990,46.573318 
	C291.212555,39.148617 280.196075,35.957699 269.066467,32.850853 
	C267.841370,32.508869 267.082428,30.497147 266.245361,28.826189 
	C277.900208,30.065178 288.126312,35.324837 298.375031,40.324039 
	C301.297363,41.749527 303.358185,44.941181 305.964233,47.640232 
z"/>
<path fill="#24DD80" opacity="1.000000" stroke="none" 
	d="
M94.593536,13.098717 
	C94.898605,14.611911 94.796608,16.057171 94.730240,16.997543 
	C89.445526,18.261787 84.664810,19.572651 79.810944,20.501108 
	C77.094917,21.020632 73.839546,22.583174 72.040688,18.236572 
	C77.344376,16.560341 82.681686,15.240150 88.042915,14.025545 
	C90.062241,13.568062 92.136978,13.355176 94.593536,13.098717 
z"/>
<path fill="#24DD80" opacity="1.000000" stroke="none" 
	d="
M185.656769,16.993706 
	C186.103043,19.557655 185.920212,20.960541 182.562988,20.919222 
	C179.021927,20.875643 175.496231,22.643047 171.898529,23.073471 
	C169.460587,23.365141 166.909927,22.714567 164.180222,22.189270 
	C169.073990,20.263380 174.159576,18.496243 179.340363,17.076593 
	C181.214478,16.563046 183.316635,16.881786 185.656769,16.993706 
z"/>
<path fill="#24DD80" opacity="1.000000" stroke="none" 
	d="
M218.584167,106.098618 
	C218.648193,107.686974 218.295807,109.207298 217.943420,110.727623 
	C216.150955,110.215172 214.358490,109.702721 212.493744,109.169601 
	C210.349487,113.403809 200.699203,113.438454 197.054001,108.531174 
	C202.008179,107.778091 207.020050,107.435959 212.021393,106.978615 
	C214.081833,106.790199 216.119644,106.354050 218.584167,106.098618 
z"/>
<path fill="#24DD80" opacity="1.000000" stroke="none" 
	d="
M117.611099,108.097427 
	C118.102486,110.322937 117.952957,112.243286 114.969559,112.002167 
	C110.052628,111.604774 105.092293,111.501793 100.239479,110.720535 
	C98.993431,110.519928 98.081047,108.246735 97.007179,106.546173 
	C103.739845,106.787155 110.480713,107.407677 117.611099,108.097427 
z"/>
<path fill="#24DD80" opacity="1.000000" stroke="none" 
	d="
M257.155884,39.434776 
	C259.388611,39.277317 261.956329,39.003746 264.233856,39.691433 
	C272.029419,42.045292 279.801208,44.528591 287.421082,47.391109 
	C290.985657,48.730194 295.010590,50.273766 294.969055,55.721809 
	C284.831329,45.129261 270.294098,44.284527 257.155884,39.434776 
z"/>
<path fill="#24DD80" opacity="1.000000" stroke="none" 
	d="
M21.577530,37.948380 
	C22.734354,38.260605 23.518520,38.627464 24.651344,38.997162 
	C22.430544,44.421032 17.456024,46.958244 12.227173,49.731445 
	C11.322536,49.917999 10.645071,49.835999 9.494746,49.519417 
	C11.924906,44.273762 15.480798,39.967701 21.577530,37.948380 
z"/>
<path fill="#24DD80" opacity="1.000000" stroke="none" 
	d="
M117.603905,10.098616 
	C117.905830,11.591908 117.811050,13.017165 117.738197,14.112702 
	C113.223724,15.077628 109.162704,16.303143 105.028557,16.645420 
	C103.472572,16.774248 101.747070,14.855705 100.049683,13.518585 
	C105.736076,12.121294 111.471634,11.075937 117.603905,10.098616 
z"/>
<path fill="#24DD80" opacity="1.000000" stroke="none" 
	d="
M157.619995,109.097633 
	C158.262283,111.745216 157.501312,113.225967 154.502914,113.040382 
	C151.388718,112.847618 148.195297,113.356209 145.149094,112.862892 
	C143.355484,112.572418 141.780762,110.930252 140.054077,109.531342 
	C145.746841,109.120636 151.493134,109.074631 157.619995,109.097633 
z"/>
<path fill="#24DD80" opacity="1.000000" stroke="none" 
	d="
M302.097534,74.410217 
	C303.289948,76.146553 305.905762,79.117439 305.268433,80.237778 
	C302.977661,84.264832 301.912903,90.582169 294.323669,88.970001 
	C296.599823,84.237000 299.314148,79.516396 302.097534,74.410217 
z"/>
<path fill="#24DD80" opacity="1.000000" stroke="none" 
	d="
M172.601013,5.098680 
	C172.902161,6.601448 172.803726,8.036245 172.663498,10.080559 
	C166.634781,8.866150 160.218796,12.833246 155.205078,6.468102 
	C160.753113,5.787991 166.477280,5.409350 172.601013,5.098680 
z"/>
<path fill="#24DD80" opacity="1.000000" stroke="none" 
	d="
M212.361603,13.934294 
	C209.955612,12.782663 207.861740,11.458779 205.832886,10.176016 
	C204.236771,12.288097 202.007004,11.418921 200.251907,7.794396 
	C196.445450,11.106158 195.573547,10.856658 193.046982,5.521564 
	C197.640305,5.779777 202.274017,6.443730 206.921356,6.992299 
	C211.964493,7.587587 214.106262,10.049007 212.361603,13.934294 
z"/>
<path fill="#24DD80" opacity="1.000000" stroke="none" 
	d="
M250.593170,24.097448 
	C251.200363,27.034830 250.510712,28.577583 247.070084,27.605892 
	C244.106247,26.768860 240.993408,26.250948 237.918701,26.073900 
	C234.888580,25.899418 233.792374,24.536364 234.030914,21.300724 
	C239.423523,21.933146 244.804642,22.980696 250.593170,24.097448 
z"/>
<path fill="#24DD80" opacity="1.000000" stroke="none" 
	d="
M295.945068,57.409115 
	C300.759644,57.350655 306.889740,65.851967 305.803284,71.140518 
	C305.642853,71.921448 303.938965,72.385292 302.557892,72.998230 
	C301.408478,67.401512 300.681183,61.789936 295.945068,57.409115 
z"/>
<path fill="#24DD80" opacity="1.000000" stroke="none" 
	d="
M234.591354,105.098671 
	C234.902878,106.599663 234.805176,108.032669 234.678162,109.895805 
	C229.514435,109.461029 224.199753,112.036240 220.204956,106.467972 
	C224.746674,105.787987 229.464401,105.409340 234.591354,105.098671 
z"/>
<path fill="#24DD80" opacity="1.000000" stroke="none" 
	d="
M11.982759,93.462158 
	C12.938463,92.926132 14.225333,92.255318 14.869419,92.645523 
	C19.963371,95.731537 24.966543,98.972771 29.903494,102.305710 
	C30.514521,102.718224 30.572847,103.949425 30.756481,105.217064 
	C24.422489,101.694901 18.219305,97.756920 11.982759,93.462158 
z"/>
<path fill="#24DD80" opacity="1.000000" stroke="none" 
	d="
M214.611954,19.097628 
	C215.205795,22.066406 214.379837,23.890402 211.072342,22.501575 
	C207.952805,21.191669 202.821213,23.795843 202.007248,17.543964 
	C206.074036,17.787302 210.148666,18.407953 214.611954,19.097628 
z"/>
<path fill="#24DD80" opacity="1.000000" stroke="none" 
	d="
M133.586273,8.098635 
	C133.645416,9.687979 133.290253,11.209309 132.935089,12.730639 
	C131.138580,12.208152 129.342072,11.685664 127.480652,11.144297 
	C125.555870,15.132190 124.421005,15.142928 121.049332,10.516657 
	C125.057655,9.454640 129.114807,8.742631 133.586273,8.098635 
z"/>
<path fill="#24DD80" opacity="1.000000" stroke="none" 
	d="
M187.587585,5.097231 
	C188.227158,8.122622 187.456558,9.502155 183.999954,8.625906 
	C181.253876,7.929771 177.545914,10.310532 176.049149,5.516893 
	C179.725220,5.120371 183.449875,5.074092 187.587585,5.097231 
z"/>
<path fill="#24DD80" opacity="1.000000" stroke="none" 
	d="
M153.595947,6.098621 
	C153.897369,7.606427 153.794159,9.046204 153.667465,10.813440 
	C149.858566,10.361529 145.698822,14.660582 143.050171,8.520029 
	C146.397461,7.454630 149.794388,6.742611 153.595947,6.098621 
z"/>
<path fill="#24DD80" opacity="1.000000" stroke="none" 
	d="
M229.620789,20.097672 
	C229.428070,23.953491 225.314697,25.562614 221.872559,23.174170 
	C220.731354,22.382315 220.009201,20.986559 219.047974,19.516781 
	C222.413986,19.453999 225.827484,19.741344 229.620789,20.097672 
z"/>
<path fill="#24DD80" opacity="1.000000" stroke="none" 
	d="
M181.606750,109.097504 
	C181.345505,110.428909 180.893768,112.582420 179.997345,112.786964 
	C177.267517,113.409843 174.350510,113.316261 173.052704,109.527229 
	C175.737991,109.120560 178.475449,109.074463 181.606750,109.097504 
z"/>
<path fill="#24DD80" opacity="1.000000" stroke="none" 
	d="
M87.599365,106.097458 
	C87.508408,107.398361 86.855049,109.728668 86.550064,109.683937 
	C84.533005,109.388084 82.461266,108.820694 80.674011,107.850487 
	C79.645554,107.292198 79.117035,105.812973 78.196381,104.457466 
	C81.085556,104.787178 84.141838,105.407730 87.599365,106.097458 
z"/>
<path fill="#24DD80" opacity="1.000000" stroke="none" 
	d="
M314.901398,66.599976 
	C312.565094,61.557034 310.296753,56.115643 308.035400,50.279900 
	C310.351379,55.324207 312.660400,60.762867 314.901398,66.599976 
z"/>
<path fill="#24DD80" opacity="1.000000" stroke="none" 
	d="
M264.006775,27.187672 
	C264.298523,29.622906 263.600677,31.651026 260.965057,30.695759 
	C258.748291,29.892305 254.813019,29.785067 256.816559,25.172417 
	C259.335693,25.641180 261.568695,26.335419 264.006775,27.187672 
z"/>
<path fill="#24DD80" opacity="1.000000" stroke="none" 
	d="
M46.153641,111.434067 
	C49.451622,110.001137 57.746395,112.348434 59.986412,115.455307 
	C55.451515,114.474861 50.902489,113.116379 46.153641,111.434067 
z"/>
<path fill="#24DD80" opacity="1.000000" stroke="none" 
	d="
M31.593601,105.544571 
	C35.252659,106.846024 39.112755,108.463333 42.986694,110.457001 
	C39.265240,109.175713 35.529938,107.518082 31.593601,105.544571 
z"/>
<path fill="#24DD80" opacity="1.000000" stroke="none" 
	d="
M193.614838,108.098450 
	C193.519409,109.734657 193.038254,111.302658 192.557098,112.870667 
	C191.071182,111.870682 189.585266,110.870705 188.049957,109.518684 
	C189.743408,108.787857 191.486252,108.409058 193.614838,108.098450 
z"/>
<path fill="#24DD80" opacity="1.000000" stroke="none" 
	d="
M76.613007,104.097557 
	C76.380455,105.416229 75.760292,106.665810 75.140129,107.915390 
	C73.791473,106.570045 72.442818,105.224709 71.047363,103.523003 
	C72.742188,103.453918 74.483795,103.741188 76.613007,104.097557 
z"/>
<path fill="#24DD80" opacity="1.000000" stroke="none" 
	d="
M165.141266,30.429749 
	C168.159851,30.579689 171.366074,31.049370 174.810577,31.813177 
	C171.808853,31.654699 168.568878,31.202093 165.141266,30.429749 
z"/>
<path fill="#24DD80" opacity="1.000000" stroke="none" 
	d="
M20.945305,83.626709 
	C15.530356,84.145309 15.873225,80.014503 15.822443,76.166840 
	C17.672243,78.404770 19.236868,80.858093 20.945305,83.626709 
z"/>
<path fill="#24DD80" opacity="1.000000" stroke="none" 
	d="
M204.124603,121.414909 
	C205.179230,120.922127 206.404816,120.734192 207.839478,120.826920 
	C206.797562,121.311638 205.546539,121.515701 204.124603,121.414909 
z"/>
<path fill="#24DD80" opacity="1.000000" stroke="none" 
	d="
M80.949371,118.425003 
	C82.201508,118.405296 83.518143,118.768745 84.916389,119.482773 
	C83.669960,119.491623 82.341919,119.149895 80.949371,118.425003 
z"/>
<path fill="#24DD80" opacity="1.000000" stroke="none" 
	d="
M214.072876,32.396347 
	C214.947403,32.219990 215.941925,32.330788 216.986938,32.780838 
	C216.089233,32.974560 215.141052,32.829033 214.072876,32.396347 
z"/>
<path fill="#24DD80" opacity="1.000000" stroke="none" 
	d="
M61.352409,116.000015 
	C62.312622,115.951569 63.591831,116.069794 64.934540,116.510681 
	C63.889164,116.611130 62.780281,116.388908 61.352409,116.000015 
z"/>
<path fill="#24DD80" opacity="1.000000" stroke="none" 
	d="
M233.352417,35.000023 
	C234.312637,34.951576 235.591843,35.069794 236.934540,35.510681 
	C235.889160,35.611130 234.780289,35.388912 233.352417,35.000023 
z"/>
<path fill="#24DD80" opacity="1.000000" stroke="none" 
	d="
M315.901917,71.645226 
	C315.345215,70.835014 314.857025,69.671532 314.601135,68.274071 
	C315.212433,69.124039 315.591431,70.208000 315.901917,71.645226 
z"/>
<path fill="#24DD80" opacity="1.000000" stroke="none" 
	d="
M243.352417,37.000023 
	C244.312637,36.951576 245.591843,37.069794 246.934540,37.510681 
	C245.889160,37.611130 244.780289,37.388908 243.352417,37.000023 
z"/>
<path fill="#24DD80" opacity="1.000000" stroke="none" 
	d="
M238.352417,36.000023 
	C239.312637,35.951576 240.591843,36.069794 241.934540,36.510681 
	C240.889160,36.611134 239.780289,36.388912 238.352417,36.000023 
z"/>
<path fill="#24DD80" opacity="1.000000" stroke="none" 
	d="
M228.352417,34.000023 
	C229.312637,33.951576 230.591843,34.069794 231.934540,34.510681 
	C230.889160,34.611130 229.780289,34.388908 228.352417,34.000023 
z"/>
<path fill="#24DD80" opacity="1.000000" stroke="none" 
	d="
M109.120880,121.412712 
	C109.930130,121.139511 110.906479,121.168800 111.940567,121.515717 
	C111.094864,121.793968 110.191414,121.754585 109.120880,121.412712 
z"/>
<path fill="#24DD80" opacity="1.000000" stroke="none" 
	d="
M70.120880,117.412704 
	C70.930130,117.139511 71.906479,117.168800 72.940567,117.515717 
	C72.094864,117.793961 71.191414,117.754578 70.120880,117.412704 
z"/>
<path fill="#24DD80" opacity="1.000000" stroke="none" 
	d="
M15.901932,71.659088 
	C15.414357,71.104912 14.995365,70.211121 14.842120,69.134506 
	C15.395416,69.740944 15.682965,70.530212 15.901932,71.659088 
z"/>
<path fill="#24DD80" opacity="1.000000" stroke="none" 
	d="
M139.102783,18.400330 
	C139.862152,17.930199 140.770355,17.750021 141.863342,17.838947 
	C141.115967,18.302128 140.183777,18.496206 139.102783,18.400330 
z"/>
<path fill="#24DD80" opacity="1.000000" stroke="none" 
	d="
M100.120880,120.412704 
	C100.930130,120.139511 101.906479,120.168800 102.940567,120.515717 
	C102.094864,120.793961 101.191414,120.754578 100.120880,120.412704 
z"/>
<path fill="#24DD80" opacity="1.000000" stroke="none" 
	d="
M208.120850,31.412683 
	C208.930115,31.139488 209.906464,31.168793 210.940552,31.515724 
	C210.094849,31.793961 209.191376,31.754574 208.120850,31.412683 
z"/>
<path fill="#24DD80" opacity="1.000000" stroke="none" 
	d="
M224.120850,33.412682 
	C224.930115,33.139481 225.906464,33.168781 226.940552,33.515717 
	C226.094849,33.793961 225.191376,33.754574 224.120850,33.412682 
z"/>
<path fill="#24DD80" opacity="1.000000" stroke="none" 
	d="
M250.120850,38.412682 
	C250.930115,38.139481 251.906464,38.168781 252.940552,38.515717 
	C252.094849,38.793964 251.191376,38.754578 250.120850,38.412682 
z"/>
<path fill="#24DD80" opacity="1.000000" stroke="none" 
	d="
M187.120850,14.412683 
	C187.930115,14.139486 188.906479,14.168790 189.940567,14.515722 
	C189.094849,14.793962 188.191376,14.754574 187.120850,14.412683 
z"/>
<path fill="#24DD80" opacity="1.000000" stroke="none" 
	d="
M78.074150,118.378998 
	C78.552231,117.947296 79.149979,117.783585 79.897598,117.864349 
	C79.429581,118.288216 78.811699,118.467606 78.074150,118.378998 
z"/>
<path fill="#24DD80" opacity="1.000000" stroke="none" 
	d="
M229.074158,119.378998 
	C229.552246,118.947281 230.149994,118.783569 230.897583,118.864342 
	C230.429565,119.288216 229.811691,119.467606 229.074158,119.378998 
z"/>
<path fill="#24DD80" opacity="1.000000" stroke="none" 
	d="
M190.074142,31.378979 
	C190.552246,30.947269 191.149994,30.783567 191.897583,30.864357 
	C191.429550,31.288231 190.811676,31.467609 190.074142,31.378979 
z"/>
<path fill="#24DD80" opacity="1.000000" stroke="none" 
	d="
M214.074158,120.378998 
	C214.552246,119.947273 215.149994,119.783562 215.897583,119.864334 
	C215.429565,120.288216 214.811691,120.467613 214.074158,120.378998 
z"/>
<path fill="#24DD80" opacity="1.000000" stroke="none" 
	d="
M115.074142,21.378998 
	C115.552231,20.947283 116.149994,20.783575 116.897606,20.864346 
	C116.429581,21.288218 115.811699,21.467613 115.074142,21.378998 
z"/>
<path fill="#24DD80" opacity="1.000000" stroke="none" 
	d="
M172.074158,15.378983 
	C172.552231,14.947272 173.149994,14.783566 173.897583,14.864355 
	C173.429550,15.288229 172.811691,15.467609 172.074158,15.378983 
z"/>
<path fill="#24DD80" opacity="1.000000" stroke="none" 
	d="
M151.087448,122.389290 
	C151.607620,122.160591 152.261185,122.210670 152.956635,122.547050 
	C152.405975,122.778252 151.813400,122.723160 151.087448,122.389290 
z"/>
<path fill="#24DD80" opacity="1.000000" stroke="none" 
	d="
M294.270447,105.856995 
	C294.110107,105.576790 294.264740,105.367172 294.658203,105.112991 
	C294.729492,105.307861 294.625610,105.594238 294.270447,105.856995 
z"/>
<path fill="#24DD80" opacity="1.000000" stroke="none" 
	d="
M301.270447,101.856995 
	C301.110107,101.576790 301.264740,101.367172 301.658203,101.112991 
	C301.729523,101.307869 301.625610,101.594246 301.270447,101.856995 
z"/>
<path fill="#24DD80" opacity="1.000000" stroke="none" 
	d="
M305.270447,97.856995 
	C305.110107,97.576790 305.264740,97.367172 305.658203,97.112991 
	C305.729492,97.307861 305.625610,97.594238 305.270447,97.856995 
z"/>
<path fill="#24DD80" opacity="1.000000" stroke="none" 
	d="
M309.270447,92.856995 
	C309.110107,92.576790 309.264740,92.367172 309.658203,92.112999 
	C309.729523,92.307877 309.625641,92.594254 309.270447,92.856995 
z"/>
<path fill="#24DD80" opacity="1.000000" stroke="none" 
	d="
M314.270447,80.856995 
	C314.110107,80.576790 314.264740,80.367172 314.658203,80.112991 
	C314.729523,80.307869 314.625610,80.594246 314.270447,80.856995 
z"/>
<path fill="#24DD80" opacity="1.000000" stroke="none" 
	d="
M219.985703,33.288422 
	C220.092407,33.034489 220.296082,33.027088 220.805573,33.030731 
	C220.768478,33.206169 220.425583,33.370564 219.985703,33.288422 
z"/>
<path fill="#24DD80" opacity="1.000000" stroke="none" 
	d="
M239.985687,118.288422 
	C240.092392,118.034485 240.296082,118.027084 240.805588,118.030731 
	C240.768478,118.206161 240.425583,118.370567 239.985687,118.288422 
z"/>
<path fill="#24DD80" opacity="1.000000" stroke="none" 
	d="
M217.985687,120.288422 
	C218.092392,120.034485 218.296082,120.027084 218.805588,120.030731 
	C218.768478,120.206161 218.425583,120.370560 217.985687,120.288422 
z"/>
<path fill="#24DD80" opacity="1.000000" stroke="none" 
	d="
M189.985687,122.288422 
	C190.092392,122.034485 190.296082,122.027084 190.805588,122.030724 
	C190.768478,122.206154 190.425568,122.370560 189.985687,122.288422 
z"/>
</svg>